<svg width="22" height="22" viewBox="55 30 185 185" fill="none" xmlns="http://www.w3.org/2000/svg">
<path d="M112.569 194.599L64.9658 61.4176C60.4207 48.7012 72.7013 36.4207 85.4176 40.9658L218.599 88.5689C225.181 90.9215 229.474 97.2741 229.202 104.258L225.993 186.628C225.667 194.975 218.975 201.667 210.628 201.993L128.258 205.202C121.274 205.474 114.921 201.181 112.569 194.599Z" fill="url(#paint0)"/>
<path opacity="0.69" d="M85.5859 40.9857C81.894 39.6661 78.2379 39.7664 75.0205 40.8822L205.63 116.289L201.503 91.1716C200.56 85.4324 196.577 80.6569 191.1 78.6993L85.5859 40.9857Z" fill="url(#paint1)"/>
<path d="M225.994 186.627L227.943 136.572C228.117 132.121 225.81 127.94 221.952 125.713L205.629 116.29L217.738 189.986C218.643 195.492 216.304 201.652 210.79 201.984C219.061 201.579 225.671 194.921 225.994 186.627Z" fill="url(#paint2)"/>
<path d="M205.629 116.29L217.738 189.986C218.651 195.547 216.259 201.774 210.628 201.993L128.259 205.202C121.769 205.455 115.827 201.765 113.131 195.962C115.586 200.457 122.209 199.332 126.293 195.248L205.388 116.15L205.629 116.29Z" fill="url(#paint3)"/>
<path d="M64.9658 61.4173L112.569 194.599C114.363 200.638 121.838 199.703 126.293 195.248L205.389 116.151L74.9376 40.8296C69.044 42.7407 61.2774 50.2234 64.9658 61.4173Z" fill="url(#paint4)"/>
<path opacity="0.8" d="M218.599 88.5687C225.181 90.9212 229.474 97.2739 229.202 104.258L227.943 136.565C228.114 132.116 225.807 127.939 221.951 125.713L205.629 116.29L205.389 116.151L205.63 116.289L201.503 91.1722C200.619 85.7955 197.067 81.2644 192.119 79.1039L218.599 88.5687Z" fill="url(#paint5)"/>
<defs>
<linearGradient id="paint0" x1="83.521" y1="141.021" x2="196.021" y2="93.521" gradientUnits="userSpaceOnUse">
<stop offset="0.03" stop-color="#FF86B4"/>
<stop offset="0.04" stop-color="#FA84B7"/>
<stop offset="0.16" stop-color="#C572DD"/>
<stop offset="0.25" stop-color="#A468F5"/>
<stop offset="0.31" stop-color="#9864FF"/>
<stop offset="0.38" stop-color="#8470FF"/>
<stop offset="0.68" stop-color="#3D9CFF"/>
<stop offset="0.89" stop-color="#11B8FF"/>
<stop offset="1" stop-color="#00C3FF"/>
</linearGradient>
<linearGradient id="paint1" x1="160.021" y1="116.021" x2="189.521" y2="64.0209" gradientUnits="userSpaceOnUse">
<stop stop-color="white"/>
<stop offset="0.89" stop-color="#30C4FF"/>
</linearGradient>
<linearGradient id="paint2" x1="239.218" y1="198.946" x2="199.29" y2="160.41" gradientUnits="userSpaceOnUse">
<stop offset="0.03" stop-color="#7B32DC"/>
<stop offset="0.98" stop-color="#32BDFF"/>
</linearGradient>
<linearGradient id="paint3" x1="201.5" y1="219" x2="199.471" y2="116.109" gradientUnits="userSpaceOnUse">
<stop stop-color="#FF86B4"/>
<stop offset="0.265106" stop-color="#7B32DC"/>
<stop offset="0.98" stop-color="#32BDFF"/>
</linearGradient>
<linearGradient id="paint4" x1="80.8156" y1="139.76" x2="181.114" y2="102.533" gradientUnits="userSpaceOnUse">
<stop offset="0.03" stop-color="#FF86B4"/>
<stop offset="0.04" stop-color="#FA84B7"/>
<stop offset="0.16" stop-color="#C572DD"/>
<stop offset="0.25" stop-color="#A468F5"/>
<stop offset="0.31" stop-color="#9864FF"/>
<stop offset="0.38" stop-color="#8470FF"/>
<stop offset="0.68" stop-color="#3D9CFF"/>
<stop offset="0.89" stop-color="#11B8FF"/>
<stop offset="1" stop-color="#00C3FF"/>
</linearGradient>
<linearGradient id="paint5" x1="206" y1="115.5" x2="244" y2="79" gradientUnits="userSpaceOnUse">
<stop stop-color="white"/>
<stop offset="0.89" stop-color="#30C4FF"/>
</linearGradient>
</defs>
</svg>
